<svg xmlns="http://www.w3.org/2000/svg" width="248.155" height="103.33" viewBox="0 0 248.155 103.33">
  <g id="Group_42" data-name="Group 42" transform="translate(-139 -22.78)">
    <path id="Path_31" data-name="Path 31" d="M.752,0,7.493-47.266H17L24.17,0H17.456L16.328-8.433H8.7L7.681,0ZM9.4-14.207h6.177l-3.169-23.74H12.3ZM28.44,0V-47.266h7.2V-6.123h9.1V0ZM50.025,0V-41.035H44.493v-6.23h18.02v6.23H57.2V0ZM66.7,0V-47.266h7.2V0ZM83.595,0V-41.035H78.062v-6.23h18.02v6.23H90.765V0Zm26.614.537A11.539,11.539,0,0,1,104.22-.846a8.041,8.041,0,0,1-3.384-4.189,20.077,20.077,0,0,1-1.074-7.1V-47.266h7.2v34.993a30.665,30.665,0,0,0,.175,3.491,4.488,4.488,0,0,0,.846,2.336,2.668,2.668,0,0,0,2.2.833,2.733,2.733,0,0,0,2.216-.819,4.262,4.262,0,0,0,.846-2.323,33.5,33.5,0,0,0,.161-3.518V-47.266h7.2v35.127a20.309,20.309,0,0,1-1.061,7.1,8,8,0,0,1-3.357,4.189A11.465,11.465,0,0,1,110.208.537ZM127.315,0V-47.266h10.608a10.329,10.329,0,0,1,5.774,1.437,8.093,8.093,0,0,1,3.156,4.149,19.356,19.356,0,0,1,.98,6.553L147.86-13.8a25.164,25.164,0,0,1-1.007,7.721A8.471,8.471,0,0,1,143.617-1.5,10.448,10.448,0,0,1,137.682,0Zm7.2-5.586h2.363a4.019,4.019,0,0,0,2.108-.51,3.106,3.106,0,0,0,1.262-1.813,12.714,12.714,0,0,0,.416-3.693l-.027-23.337a11.289,11.289,0,0,0-.886-5.21,3.263,3.263,0,0,0-3.115-1.584h-2.122ZM154.386,0V-47.266H170.23v6.2h-8.647v13.75H169.8v6.069h-8.218V-6.2h8.97V0Z" transform="translate(216.603 95.771)" fill="#fff"/>
    <path id="Path_32" data-name="Path 32" d="M-.57,0,2.46-11.07H.72l.81-3.09H3.3l.3-1.14a10.631,10.631,0,0,1,.6-1.5,8.414,8.414,0,0,1,2.88-3.36,6.636,6.636,0,0,1,3.75-1.26,4.138,4.138,0,0,1,3.51,1.74l-.75,2.85a3.3,3.3,0,0,0-.51-.75,2.689,2.689,0,0,0-1.59-.93q-2.4-.21-3.72,3.21l-.3,1.14H9.75l-.81,3.09H6.6L3.57,0Q3.3.54,2.88,1.44A5.706,5.706,0,0,1,.675,3.78a5.748,5.748,0,0,1-2.985.87A3.349,3.349,0,0,1-5.19,3.3L-4.47.87A1.93,1.93,0,0,0-2.82,1.89Q-1.29,1.89-.57,0ZM15.42-14.22,11.7.03H7.56l3.72-14.25Zm-.96-2.31A2.842,2.842,0,0,1,12.72-17,1.468,1.468,0,0,1,12-18.24a1.619,1.619,0,0,1,.72-1.305,2.912,2.912,0,0,1,1.74-.585,2.842,2.842,0,0,1,1.74.465,1.468,1.468,0,0,1,.72,1.245,1.619,1.619,0,0,1-.72,1.305A2.912,2.912,0,0,1,14.46-16.53ZM18.54.03H14.4L19.98-21.3h4.17ZM41.79,2.16a1.52,1.52,0,0,0,1.29-.54l.9,2.67a5.664,5.664,0,0,1-4.05,1.62,3.665,3.665,0,0,1-2.85-1.23,3.254,3.254,0,0,1-.99-2.16q0,.24.27-2.52l2.49-9.6a.8.8,0,0,0,.06-.3.851.851,0,0,0-.48-.78.717.717,0,0,0-.48-.18,1.919,1.919,0,0,0-1.17.51q-.93.75-.96.78a3.234,3.234,0,0,0-.72.99L32.85,0H28.68L31.2-9.45a1.526,1.526,0,0,0,.03-.3.851.851,0,0,0-.48-.78.649.649,0,0,0-.48-.18,2.015,2.015,0,0,0-1.17.51,10.644,10.644,0,0,0-1.29,1.14,4.626,4.626,0,0,0-.78,2.04H27L25.14,0H21l3.72-14.16h4.14l-.3,1.11a6.573,6.573,0,0,1,3.42-1.08,2.788,2.788,0,0,1,.99.15,3.882,3.882,0,0,1,1.98,1.74,7.27,7.27,0,0,1,4.71-2.04,2.945,2.945,0,0,1,.99.15,3.737,3.737,0,0,1,2.46,3.66,3.876,3.876,0,0,1-.09.87L40.5,0a2.66,2.66,0,0,0,.39,1.77A1.265,1.265,0,0,0,41.79,2.16Zm5.43-6.9q.21,1.29.87,1.59a3.057,3.057,0,0,0,.45.24A4.98,4.98,0,0,0,52.29-4.5L51.24-.48a4.9,4.9,0,0,1-2.7.81A5.592,5.592,0,0,1,46.02-.3q-2.76-1.35-2.76-5.16a9.128,9.128,0,0,1,.96-4.02,8.893,8.893,0,0,1,2.91-3.465,6.485,6.485,0,0,1,3.75-1.305,4.554,4.554,0,0,1,1.95.42,3.407,3.407,0,0,1,2.37,3.6,4.447,4.447,0,0,1-.09.93,5.81,5.81,0,0,1-2.28,3.33,6.477,6.477,0,0,1-4.05,1.44A5.758,5.758,0,0,1,47.22-4.74Zm.24-2.61a5.52,5.52,0,0,0,1.14.12,3.99,3.99,0,0,0,2.46-.72,2.4,2.4,0,0,0,.99-1.74,1.475,1.475,0,0,0-.36-.93,1.055,1.055,0,0,0-.84-.45,2.9,2.9,0,0,0-2.13,1.38A7.062,7.062,0,0,0,47.46-7.35Zm16.89-2.82a6.7,6.7,0,0,0-4.02-1.23,1.866,1.866,0,0,0-1.02.33.955.955,0,0,0-.51.81q0,.48,1.29,1.14a15.571,15.571,0,0,1,2.4,1.38,3.18,3.18,0,0,1,1.26,2.52,5.252,5.252,0,0,1-1.71,4.095A6.159,6.159,0,0,1,57.75.42,12.01,12.01,0,0,1,55.29.06a6.4,6.4,0,0,1-2.25-.75l.84-3.33a7.744,7.744,0,0,0,3.96.96q1.98,0,1.98-1.11,0-.84-1.185-1.5T56.28-6.96A2.825,2.825,0,0,1,55.05-9.3a4.918,4.918,0,0,1,1.8-3.87,6.012,6.012,0,0,1,4.05-1.47,7.458,7.458,0,0,1,4.29,1.11Z" transform="translate(321.138 120.2)" fill="#1e723c"/>
    <path id="Path_33" data-name="Path 33" d="M0,0H97.143V17.829H0Z" transform="translate(218.627 100.509)" fill="#fff"/>
    <path id="Path_34" data-name="Path 34" d="M1.6,0H.785V-8.367H1.6ZM5.406,0h-.82V-8.367H6.057l.557,3.375.34,4.213h.223L7.51-4.992l.563-3.375H9.537V0h-.82V-2.461l.141-5.156H8.606l-.586,5.2L7.592-.029H6.531L6.109-2.414l-.592-5.2H5.272l.135,5.156Zm7.4,0h-.832L13.3-8.367h1.676L16.309,0h-.832l-.363-2.32H13.168Zm.7-4.893L13.244-3.07h1.793L14.785-4.9l-.41-2.719h-.463ZM20.848.076a2.813,2.813,0,0,1-1.6-.349,1.372,1.372,0,0,1-.51-1.151q-.053-1.342-.053-2.751t.053-2.739a1.408,1.408,0,0,1,.51-1.178,2.754,2.754,0,0,1,1.582-.352,2.741,2.741,0,0,1,1.556.346,1.4,1.4,0,0,1,.53,1.143,7.544,7.544,0,0,1,.032.762q0,.387-.032.762H22.1q.029-.4.032-.829T22.1-7.09a.569.569,0,0,0-.328-.492,2.139,2.139,0,0,0-.943-.158,2.195,2.195,0,0,0-.958.158.543.543,0,0,0-.319.492q-.047,1.447-.044,2.9t.044,2.9a.556.556,0,0,0,.311.5,2.2,2.2,0,0,0,.984.161,2.352,2.352,0,0,0,1-.161.576.576,0,0,0,.346-.5q.012-.8,0-1.588H20.819v-.738h2.168q.029.41.035.955t-.029,1.236a1.335,1.335,0,0,1-.524,1.151A2.921,2.921,0,0,1,20.848.076ZM29.108,0H25.587V-8.367h3.521v.75H26.4v3.023h2.525v.75H26.4V-.75h2.707Zm3.233,0h-.8V-8.367h1.494l.65,2.654L34.772-.75H35.1l-.135-4.559-.041-3.059h.8V0H34.192l-.738-2.959-.932-4.664h-.352l.123,4.482Zm8.131.076a2.817,2.817,0,0,1-1.594-.349,1.379,1.379,0,0,1-.521-1.151q-.029-.445-.021-.809t.038-.814h.791q-.035.451-.032.9t.032.861a.6.6,0,0,0,.322.5,2.129,2.129,0,0,0,.967.161,2,2,0,0,0,.94-.161.618.618,0,0,0,.313-.5q.029-.416.026-.724t-.026-.765a1.2,1.2,0,0,0-.19-.609,1.032,1.032,0,0,0-.741-.322l-.838-.152a2.7,2.7,0,0,1-.993-.325,1.08,1.08,0,0,1-.451-.551,2.886,2.886,0,0,1-.144-.823q-.018-.322-.012-.688t.023-.712a1.333,1.333,0,0,1,.489-1.14,2.832,2.832,0,0,1,1.6-.343,2.586,2.586,0,0,1,1.509.346,1.39,1.39,0,0,1,.5,1.143q.018.275.012.683t-.023.841h-.8q.041-.416.041-.832t-.029-.826a.575.575,0,0,0-.308-.492,2,2,0,0,0-.923-.158,2.068,2.068,0,0,0-.946.158.589.589,0,0,0-.313.492q-.029.375-.026.762t.026.768a1.237,1.237,0,0,0,.185.653,1.093,1.093,0,0,0,.765.3l.82.129a2.5,2.5,0,0,1,1,.322,1.116,1.116,0,0,1,.454.565,2.8,2.8,0,0,1,.138.817q.029.434.023.7t-.035.65A1.427,1.427,0,0,1,42-.272,2.637,2.637,0,0,1,40.472.076ZM49.715,0h-.832l1.324-8.367h1.676L53.218,0h-.832l-.363-2.32H50.078Zm.7-4.893L50.154-3.07h1.793L51.7-4.9l-.41-2.719h-.463ZM59.188,0H55.666V-8.367h3.521v.75H56.48v3.023h2.525v.75H56.48V-.75h2.707ZM57.652-8.783h-.5l.539-1.248h.527ZM62.444,0h-.814V-8.367h1.939a2.664,2.664,0,0,1,1.521.34,1.409,1.409,0,0,1,.53,1.125q.059.656.053,1.2t-.053,1.1a1.4,1.4,0,0,1-.3.853,1.61,1.61,0,0,1-.844.472L65.948,0h-.891L63.686-3.135H62.444Zm0-7.617v3.732h1.1a2.042,2.042,0,0,0,.952-.164.6.6,0,0,0,.313-.51,16.2,16.2,0,0,0,0-2.385.6.6,0,0,0-.311-.51,1.972,1.972,0,0,0-.932-.164ZM71.952,0H68.43V-8.367h3.521v.75H69.245v3.023H71.77v.75H69.245V-.75h2.707Zm2.969,0h-.832l1.324-8.367h1.676L78.425,0h-.832l-.363-2.32H75.284Zm.7-4.893L75.36-3.07h1.793L76.9-4.9l-.41-2.719h-.463ZM82.882.076a2.817,2.817,0,0,1-1.594-.349,1.379,1.379,0,0,1-.521-1.151q-.029-.445-.021-.809t.038-.814h.791q-.035.451-.032.9t.032.861a.6.6,0,0,0,.322.5,2.129,2.129,0,0,0,.967.161,2,2,0,0,0,.94-.161.618.618,0,0,0,.313-.5q.029-.416.026-.724t-.026-.765a1.2,1.2,0,0,0-.19-.609,1.032,1.032,0,0,0-.741-.322l-.838-.152a2.7,2.7,0,0,1-.993-.325,1.08,1.08,0,0,1-.451-.551,2.886,2.886,0,0,1-.144-.823q-.018-.322-.012-.688t.023-.712a1.333,1.333,0,0,1,.489-1.14,2.832,2.832,0,0,1,1.6-.343,2.586,2.586,0,0,1,1.509.346,1.39,1.39,0,0,1,.5,1.143q.018.275.012.683t-.023.841h-.8q.041-.416.041-.832t-.029-.826a.575.575,0,0,0-.308-.492,2,2,0,0,0-.923-.158,2.068,2.068,0,0,0-.946.158.589.589,0,0,0-.313.492q-.029.375-.026.762t.026.768a1.237,1.237,0,0,0,.185.653,1.093,1.093,0,0,0,.765.3l.82.129a2.5,2.5,0,0,1,1,.322,1.116,1.116,0,0,1,.454.565,2.8,2.8,0,0,1,.138.817q.029.434.023.7t-.035.65a1.427,1.427,0,0,1-.519,1.151A2.637,2.637,0,0,1,82.882.076Z" transform="translate(224.119 113.619)" fill="#4d4e4e"/>
    <g id="Group_31" data-name="Group 31" transform="translate(139 46.838)">
      <path id="Path_24" data-name="Path 24" d="M145.009,392.049l-6.213-6.213a13.38,13.38,0,0,1,0-18.922l6.213-6.213a3.954,3.954,0,1,0-5.592-5.592l-6.213,6.213a13.38,13.38,0,0,1-18.922,0l-6.213-6.213a3.954,3.954,0,0,0-5.592,5.592l6.213,6.213a13.38,13.38,0,0,1,0,18.922l-6.213,6.213a3.954,3.954,0,1,0,5.592,5.592l6.213-6.213a13.38,13.38,0,0,1,18.922,0l6.213,6.213a3.954,3.954,0,1,0,5.592-5.592" transform="translate(-87.942 -340.573)" fill="#fff"/>
      <path id="Path_25" data-name="Path 25" d="M3.809,278.548h0A3.809,3.809,0,0,1,0,274.739v-18.3a3.809,3.809,0,0,1,3.809-3.809h18.3a3.809,3.809,0,0,1,0,7.619H11.428a3.809,3.809,0,0,0-3.809,3.809v10.679a3.809,3.809,0,0,1-3.809,3.809" transform="translate(0 -252.632)" fill="#1e723c"/>
      <path id="Path_26" data-name="Path 26" d="M368.141,278.548h0a3.809,3.809,0,0,1-3.809-3.809V264.06a3.809,3.809,0,0,0-3.809-3.809H349.843a3.809,3.809,0,0,1,0-7.619h18.3a3.809,3.809,0,0,1,3.809,3.809v18.3a3.809,3.809,0,0,1-3.809,3.809" transform="translate(-300.347 -252.632)" fill="#1e723c"/>
      <path id="Path_27" data-name="Path 27" d="M22.107,624.581H3.809A3.809,3.809,0,0,1,0,620.772v-18.3a3.809,3.809,0,1,1,7.619,0v10.679a3.809,3.809,0,0,0,3.809,3.809H22.107a3.809,3.809,0,1,1,0,7.619" transform="translate(0 -552.979)" fill="#1e723c"/>
      <path id="Path_28" data-name="Path 28" d="M368.141,624.581h-18.3a3.809,3.809,0,1,1,0-7.619h10.679a3.809,3.809,0,0,0,3.809-3.809V602.474a3.809,3.809,0,1,1,7.619,0v18.3a3.809,3.809,0,0,1-3.809,3.809" transform="translate(-300.347 -552.979)" fill="#1e723c"/>
    </g>
    <path id="Path_29" data-name="Path 29" d="M419.788,15.283a.3.3,0,0,0,0-.607.3.3,0,0,0,0,.607" transform="translate(-223.604 8.104)" fill="#4d4e4e"/>
  </g>
</svg>
